<?xml version="1.0" encoding="UTF-8" standalone="no"?>
<!-- Created with Inkscape (http://www.inkscape.org/) -->

<svg
   xmlns:dc="http://purl.org/dc/elements/1.1/"
   xmlns:cc="http://creativecommons.org/ns#"
   xmlns:rdf="http://www.w3.org/1999/02/22-rdf-syntax-ns#"
   xmlns:svg="http://www.w3.org/2000/svg"
   xmlns="http://www.w3.org/2000/svg"
   xmlns:sodipodi="http://sodipodi.sourceforge.net/DTD/sodipodi-0.dtd"
   xmlns:inkscape="http://www.inkscape.org/namespaces/inkscape"
   width="393.54288"
   height="287.48569"
   viewBox="0 0 393.54288 287.48569"
   id="svg2"
   version="1.1"
   inkscape:version="0.92.0 r15299"
   sodipodi:docname="controls.svg">
  <defs
     id="defs4" />
  <sodipodi:namedview
     id="base"
     pagecolor="#ffffff"
     bordercolor="#666666"
     borderopacity="1.0"
     inkscape:pageopacity="0.0"
     inkscape:pageshadow="2"
     inkscape:zoom="2.8"
     inkscape:cx="181.69334"
     inkscape:cy="58.471042"
     inkscape:document-units="px"
     inkscape:current-layer="layer1"
     showgrid="false"
     units="px"
     fit-margin-top="0"
     fit-margin-left="0"
     fit-margin-right="0"
     fit-margin-bottom="0"
     inkscape:window-width="1536"
     inkscape:window-height="841"
     inkscape:window-x="-8"
     inkscape:window-y="-8"
     inkscape:window-maximized="1" />
  <metadata
     id="metadata7">
    <rdf:RDF>
      <cc:Work
         rdf:about="">
        <dc:format>image/svg+xml</dc:format>
        <dc:type
           rdf:resource="http://purl.org/dc/dcmitype/StillImage" />
        <dc:title />
      </cc:Work>
    </rdf:RDF>
  </metadata>
  <g
     inkscape:label="Layer 1"
     inkscape:groupmode="layer"
     id="layer1"
     transform="translate(206.68214,-575.48719)">
    <path
       style="fill:#00ffff"
       d="m -162.14141,764.69362 c -2.49556,-3.1726 -2.59072,-4.72986 -2.59072,-42.39777 0,-21.50731 0.34941,-40.01475 0.77648,-41.12766 1.98284,-5.1672 6.09554,-5.681 45.47351,-5.681 39.377984,0 43.490684,0.5138 45.473524,5.681 0.42706,1.11291 0.77648,19.62035 0.77648,41.12766 0,37.66791 -0.0952,39.22517 -2.59073,42.39777 l -2.59072,3.29357 -41.068554,0 -41.06854,0 -2.59073,-3.29357 z M -77.526596,723.137 c 0.23512,-27.90257 -0.0797,-39.71946 -1.09056,-40.9375 -1.94153,-2.3394 -77.286964,-2.54032 -79.614974,-0.21231 -1.10243,1.10242 -1.5,11.81481 -1.5,40.41666 0,21.40418 0.38266,39.29933 0.85035,39.76703 0.4677,0.46768 18.88957,0.70206 40.93749,0.52084 l 40.087154,-0.32953 0.33054,-39.22519 z m -42.518044,2.29003 c -2.57813,-1.37476 -4.68749,-3.28466 -4.68749,-4.24424 0,-0.98882 2.7712,-2.66514 6.39655,-3.86927 7.45869,-2.47739 8.84202,-1.53231 8.30468,5.67367 -0.40104,5.37803 -3.21701,6.06414 -10.01374,2.43984 z m 62.903223,39.26659 c -2.49557,-3.1726 -2.59072,-4.72986 -2.59072,-42.39777 0,-21.50731 0.34941,-40.01475 0.77647,-41.12766 1.98286,-5.1672 6.09554,-5.681 45.473531,-5.681 39.37799,0 43.49067,0.5138 45.47352,5.681 0.42707,1.11291 0.77648,19.62035 0.77648,41.12766 0,37.66791 -0.0951,39.22517 -2.59073,42.39777 l -2.59072,3.29357 -41.06855,0 -41.068551,0 -2.59073,-3.29357 z M 27.473404,723.137 c 0.23512,-27.90257 -0.0796,-39.71946 -1.09056,-40.9375 -1.94153,-2.3394 -77.28697,-2.54032 -79.614981,-0.21231 -1.10242,1.10243 -1.5,11.81481 -1.5,40.41666 0,21.40418 0.38266,39.29933 0.85035,39.76703 0.4677,0.46769 18.88957,0.70206 40.937501,0.52084 l 40.08715,-0.32953 0.33054,-39.22519 z m -42.766431,5.1287 c -1.52304,-1.51289 -4.43911,-9.18628 -4.43911,-11.68116 0,-1.98349 0.96882,-2.34735 6.250001,-2.34735 7.2151495,0 7.6732995,1.0597 3.7678595,8.71499 -2.7071695,5.30651 -4.1767195,6.7062 -5.5787505,5.31352 z m 63.151606,36.42792 c -2.49557,-3.1726 -2.59072,-4.72986 -2.59072,-42.39777 0,-21.50731 0.34941,-40.01475 0.77648,-41.12766 1.98285,-5.1672 6.09553,-5.681 45.47353,-5.681 39.377991,0 43.490681,0.5138 45.473521,5.681 0.42707,1.11291 0.77648,19.62035 0.77648,41.12766 0,37.66791 -0.0951,39.22517 -2.59073,42.39777 l -2.59072,3.29357 -41.068551,0 -41.06856,0 -2.59073,-3.29357 z M 132.47341,723.137 c 0.23512,-27.90257 -0.0796,-39.71946 -1.09056,-40.9375 -1.94153,-2.3394 -77.286981,-2.54032 -79.614991,-0.21231 -1.10243,1.10243 -1.5,11.81481 -1.5,40.41666 0,21.40418 0.38266,39.29933 0.85035,39.76703 0.4677,0.46769 18.88958,0.70206 40.93751,0.52084 l 40.087151,-0.32953 0.33054,-39.22519 z m -48.289341,4.51639 c -1.69685,-1.69685 -1.83694,-8.3156 -0.22979,-10.85611 0.9762,-1.54314 2.1034,-1.3675 7.52719,1.17286 4.15296,1.94514 6.25024,3.6567 6.00991,4.90463 -0.52434,2.7226 -11.4426,6.64333 -13.30731,4.77862 z M -57.141417,664.69362 c -2.49557,-3.1726 -2.59072,-4.72986 -2.59072,-42.39777 0,-21.50731 0.34941,-40.01475 0.77647,-41.12766 1.98286,-5.1672 6.09554,-5.681 45.473531,-5.681 39.37799,0 43.49067,0.5138 45.47352,5.681 0.42707,1.11291 0.77648,19.62035 0.77648,41.12766 0,37.66791 -0.0951,39.22517 -2.59073,42.39777 l -2.59072,3.29357 -41.06855,0 -41.068551,0 -2.59073,-3.29357 z M 27.473404,623.137 c 0.23512,-27.90258 -0.0796,-39.71946 -1.09056,-40.9375 -1.94153,-2.3394 -77.28697,-2.54032 -79.614981,-0.21231 -1.10243,1.10243 -1.5,11.81482 -1.5,40.41667 0,21.40416 0.38266,39.29932 0.85035,39.76702 0.4677,0.46769 18.88957,0.70206 40.937501,0.52083 l 40.08715,-0.32952 0.33054,-39.22519 z m -47.184981,2.66269 c 0.0267,-2.84422 5.23506,-12.0321 6.854441,-12.09173 1.63886,-0.0604 5.4882095,7.8713 5.5649595,11.46673 0.0544,2.54967 -0.52402,2.8125 -6.1899595,2.8125 -5.126871,0 -6.246301,-0.39309 -6.229441,-2.1875 z"
       id="path4147"
       inkscape:connector-curvature="0" />
    <text
       xml:space="preserve"
       style="font-style:normal;font-weight:normal;font-size:40px;line-height:125%;font-family:sans-serif;letter-spacing:0px;word-spacing:0px;fill:#000000;fill-opacity:1;stroke:none;stroke-width:1px;stroke-linecap:butt;stroke-linejoin:miter;stroke-opacity:1"
       x="-63.482151"
       y="841.20148"
       id="text4151"><tspan
         sodipodi:role="line"
         id="tspan4153"
         x="-63.482151"
         y="877.6947"
         style="font-style:normal;font-variant:normal;font-weight:bold;font-stretch:normal;font-family:'Tw Cen MT Condensed';-inkscape-font-specification:'Tw Cen MT Condensed, Bold';fill:#00ffff" /></text>
  </g>
</svg>
